<svg version="1.1" id="Capa_1" xmlns="http://www.w3.org/2000/svg" xmlns:xlink="http://www.w3.org/1999/xlink" x="0px" y="0px" viewBox="0 0 512 512" style="enable-background:new 0 0 512 512;" xml:space="preserve"><circle style="fill:#005C83;" cx="256" cy="256" r="256"></circle><path style="fill:#00263F;" d="M390.788,156.779h-88.831l-15.712-15.712L236.755,148L90.95,262l239.106,239.106 C435.329,469.342,512,371.632,512,256c0-4.383-0.111-8.74-0.329-13.069l-94.475-92.876L390.788,156.779z"></path><circle style="fill:#35CCFF;" cx="153.88" cy="208.13" r="71.877"></circle><circle style="fill:#00BAFF;" cx="358.12" cy="208.13" r="71.877"></circle><path style="fill:#FFDC00;" d="M256,128.877c-17.426,0-32.5,10.247-39.524,25.029c-15.208-17.533-37.622-28.655-62.599-28.655 C108.179,125.251,71,162.43,71,208.128s37.179,82.877,82.877,82.877c41.968,0,76.726-31.363,82.126-71.877h50.242V204.16 c8.305-7.965,13.491-19.159,13.491-31.547C299.736,148.497,280.116,128.877,256,128.877z M153.877,269.006 c-33.567,0-60.877-27.31-60.877-60.877s27.31-60.877,60.877-60.877c33.568,0,60.878,27.309,60.878,60.877 S187.445,269.006,153.877,269.006z M256,194.35c-11.985,0-21.736-9.751-21.736-21.736s9.751-21.736,21.736-21.736 s21.736,9.751,21.736,21.736S267.985,194.35,256,194.35z"></path><path style="fill:#FFC000;" d="M441,208.128c0-45.699-37.179-82.877-82.877-82.877c-24.977,0-47.391,11.122-62.599,28.655 c-7.025-14.782-22.099-25.029-39.524-25.029c-0.112,0-0.222,0.008-0.333,0.009v22c0.111-0.001,0.221-0.008,0.333-0.008 c11.985,0,21.736,9.751,21.736,21.736S267.985,194.35,256,194.35c-0.112,0-0.222-0.007-0.333-0.008v24.787h20.331 c5.4,40.514,40.158,71.877,82.126,71.877c18.892,0,36.317-6.367,50.272-17.05v137.069h32V217.969 C440.78,214.74,441,211.46,441,208.128z M358.123,269.006c-33.568,0-60.878-27.31-60.878-60.877s27.31-60.877,60.878-60.877 c33.567,0,60.877,27.309,60.877,60.877S391.69,269.006,358.123,269.006z"></path></svg>