<svg fill="none" viewBox="0 0 100 100" xmlns="http://www.w3.org/2000/svg"><g fill="rgb(0,0,0)"><path d="m49.9994 64.2918c7.8932 0 14.2919-6.3987 14.2919-14.2919 0-7.8933-6.3987-14.292-14.2919-14.292s-14.2919 6.3987-14.2919 14.292c0 7.8932 6.3987 14.2919 14.2919 14.2919z"></path><path clip-rule="evenodd" d="m88.1093 55.0312c-8.966 11.1282-22.7064 18.248-38.1097 18.248-15.4032 0-29.1436-7.1198-38.1096-18.248-2.37156-2.9434-2.37156-7.1191 0-10.0625 8.966-11.1282 22.7064-18.248 38.1096-18.248 15.4033 0 29.1437 7.1198 38.1097 18.248 2.3715 2.9434 2.3715 7.1191 0 10.0625zm-4.1764-10.3268c-8.3995-9.2101-20.493-14.9837-33.9333-14.9837s-25.5337 5.7736-33.9332 14.9836c-2.746 3.011-2.746 7.5803 0 10.5913 8.3995 9.21 20.4929 14.9836 33.9332 14.9836s25.5338-5.7736 33.9333-14.9836c2.746-3.011 2.746-7.5803 0-10.5912z" fill-rule="evenodd"></path></g></svg>