<svg viewBox="0 0 409.6 409.6" xmlns="http://www.w3.org/2000/svg"><path d="m187.734375 0h34.128906v102.398438h-34.128906zm0 0"></path><path d="m187.734375 307.199219h34.128906v102.402343h-34.128906zm0 0"></path><path d="m0 187.734375h102.398438v34.128906h-102.398438zm0 0"></path><path d="m307.199219 187.734375h102.402343v34.128906h-102.402343zm0 0"></path><path d="m47.914062 72.046875 24.128907-24.128906 72.417969 72.417969-24.128907 24.128906zm0 0"></path><path d="m265.132812 289.277344 24.132813-24.132813 72.410156 72.40625-24.136719 24.136719zm0 0"></path><path d="m72.039062 361.675781-24.128906-24.148437 72.4375-72.378906 24.128906 24.152343zm0 0"></path><path d="m289.285156 144.464844-24.136718-24.132813 72.410156-72.40625 24.132812 24.132813zm0 0"></path></svg>