<svg viewBox="0 0 64 64" xmlns="http://www.w3.org/2000/svg"><g id="discount_tag"><g><path d="m27.217 30.692 2.338-2.338c.277-.278.431-.649.431-1.047s-.153-.769-.431-1.047c-.278-.277-.649-.431-1.047-.431s-.769.153-1.047.431l-2.339 2.34c-.576.577-.576 1.516 0 2.093.557.554 1.538.554 2.095-.001z"></path><path d="m26.17 44.537c-.397 0-.77.153-1.048.431l-2.338 2.338c-.277.278-.431.649-.431 1.047s.153.769.431 1.047c.557.555 1.537.555 2.094 0l2.339-2.339c.576-.577.576-1.516 0-2.093-.279-.278-.65-.431-1.047-.431z"></path><path d="m61.92 2.14c-3.63-3.52-9.31 2-11.74 4.36l-.32.3c-1.15 1.12-2.9 3.431-4.41 5.86h.89c.47 0 .93.07 1.36.189 1.28-1.949 2.65-3.739 3.55-4.609l.32-.311c1.84-1.779 6.72-6.529 8.95-4.349.32.31.471.66.471 1.1-.021 2.351-3.91 6.03-5.58 7.601l-.55.52c-.75.73-2.141 1.91-3.82 3.15-.55-1.5-1.79-2.67-3.34-3.101-.29.44-.58.881-.851 1.33-.9 1.48-1.61 2.82-2.03 3.87.47.271.87.67 1.14 1.141-.03.01-.06.02-.09.029-.851.4-1.311.5-1.54.521.02-.24.1-.74.479-1.66 0-.01.011-.021.011-.03-.44-.25-.95-.39-1.48-.39-.18 0-.35.02-.52.05-.46 1.17-.83 2.66.029 3.521.381.38.86.52 1.381.52.68 0 1.42-.25 2.06-.52-.271 1.38-1.49 2.43-2.95 2.43-1.66 0-3-1.34-3-3 0-1.47 1.07-2.71 2.48-2.95.04-.13.09-.26.14-.38.46-1.16 1.22-2.61 2.19-4.19.1-.159.199-.319.3-.479h-13.11c-2.479 0-5.79 1.37-7.54 3.12l-22.34 22.347c-1.95 1.95-1.95 5.12 0 7.07l16.34 16.34c.95.94 2.2 1.46 3.54 1.46s2.59-.52 3.53-1.46l22.35-22.34c1.75-1.75 3.12-5.061 3.12-7.54v-13.45c1.88-1.34 3.811-2.9 4.91-3.97l.54-.51c2.16-2.04 6.17-5.83 6.2-9.03 0-.99-.37-1.87-1.07-2.56zm-38.212 25.046 2.339-2.339c1.311-1.311 3.611-1.311 4.922 0 .655.655 1.017 1.529 1.017 2.461s-.361 1.806-1.017 2.461l-2.338 2.338c-.655.655-1.529 1.017-2.461 1.017s-1.806-.361-2.462-1.017c-1.355-1.357-1.355-3.565 0-4.921zm4.923 21.289-2.339 2.339c-.655.655-1.529 1.017-2.461 1.017s-1.806-.361-2.461-1.017-1.017-1.529-1.017-2.461.361-1.806 1.017-2.461l2.338-2.338c1.313-1.311 3.612-1.311 4.923 0 1.355 1.356 1.355 3.564 0 4.921zm10.141-14.783-24.44 10.124c-.125.052-.255.076-.383.076-.392 0-.765-.232-.924-.617-.211-.511.031-1.096.541-1.307l24.44-10.124c.507-.209 1.096.031 1.307.541.211.511-.031 1.096-.541 1.307z"></path></g></g></svg>