<svg enable-background="new 0 0 512 512" viewBox="0 0 512 512" xmlns="http://www.w3.org/2000/svg"><g id="_x31_9_x2C__delete_x2C__cross_x2C__lense_x2C__search_x2C__tool"><g><g><path d="m376.86 381.861c-1.28 0-2.559-.488-3.536-1.465l-40.3-40.3c-1.953-1.952-1.953-5.118 0-7.07 1.953-1.953 5.118-1.953 7.071 0l40.3 40.3c1.953 1.952 1.953 5.118 0 7.07-.976.977-2.255 1.465-3.535 1.465z" fill="#4f4c5f"></path><path d="m486.91 423.271c17.567 17.547 17.58 46.08 0 63.64-17.57 17.57-46.07 17.57-63.64 0l-78.23-78.23 63.64-63.64z" fill="#61729b"></path><path d="m336.26 67.561c74.2 74.2 74.2 194.5 0 268.7s-194.5 74.2-268.7 0-74.2-194.5 0-268.7 194.5-74.2 268.7 0z" fill="#7ed8f6"></path><path d="m286.76 117.061c46.86 46.86 46.86 122.84 0 169.7-46.86 46.87-122.84 46.87-169.7 0-46.87-46.86-46.87-122.84 0-169.7 46.86-46.87 122.84-46.87 169.7 0z" fill="#edf5ff"></path><path d="m258.48 230.191-28.29 28.29-28.28-28.29-28.29 28.29-28.28-28.29 28.28-28.28-28.28-28.28 28.28-28.29 28.29 28.29 28.28-28.29 28.29 28.29-28.29 28.28z" fill="#e64d2e"></path></g></g></g></svg>